<svg width="500" height="500" viewBox="0 0 500 500" fill="none" xmlns="http://www.w3.org/2000/svg">
<rect width="500" height="500" fill="#378936"/>
<path d="M59.9453 324V170.438H109.41C122.98 170.438 135.18 173.531 146.008 179.719C156.836 185.836 165.273 194.52 171.32 205.77C177.438 216.949 180.531 229.5 180.602 243.422V250.488C180.602 264.551 177.613 277.172 171.637 288.352C165.73 299.461 157.363 308.18 146.535 314.508C135.777 320.766 123.754 323.93 110.465 324H59.9453ZM96.9648 199.02V295.523H109.832C120.449 295.523 128.605 291.762 134.301 284.238C139.996 276.645 142.844 265.395 142.844 250.488V243.844C142.844 229.008 139.996 217.828 134.301 210.305C128.605 202.781 120.309 199.02 109.41 199.02H96.9648ZM294.824 258.926H236.605V295.523H305.371V324H199.586V170.438H305.582V199.02H236.605V231.398H294.824V258.926ZM380.043 282.234L410.629 170.438H451.973L400.293 324H359.793L308.535 170.438H349.562L380.043 282.234Z" fill="white"/>
</svg>
